<?xml version="1.0" encoding="UTF-8" standalone="no"?>
<!-- Created with Inkscape (http://www.inkscape.org/) -->

<svg
   width="240mm"
   height="100mm"
   viewBox="0 0 240 100"
   version="1.1"
   id="svg8"
   inkscape:version="1.2.1 (9c6d41e410, 2022-07-14)"
   sodipodi:docname="relayLogo.svg"
   inkscape:export-filename="relayLogo.png"
   inkscape:export-xdpi="96"
   inkscape:export-ydpi="96"
   xmlns:inkscape="http://www.inkscape.org/namespaces/inkscape"
   xmlns:sodipodi="http://sodipodi.sourceforge.net/DTD/sodipodi-0.dtd"
   xmlns="http://www.w3.org/2000/svg"
   xmlns:svg="http://www.w3.org/2000/svg"
   xmlns:rdf="http://www.w3.org/1999/02/22-rdf-syntax-ns#"
   xmlns:cc="http://creativecommons.org/ns#"
   xmlns:dc="http://purl.org/dc/elements/1.1/">
  <defs
     id="defs2">
    <rect
       x="-35.714286"
       y="-250"
       width="732.85714"
       height="177.14286"
       id="rect240" />
  </defs>
  <sodipodi:namedview
     id="base"
     pagecolor="#ffffff"
     bordercolor="#666666"
     borderopacity="1.0"
     inkscape:pageopacity="0.0"
     inkscape:pageshadow="2"
     inkscape:zoom="0.98994949"
     inkscape:cx="270.21581"
     inkscape:cy="167.18025"
     inkscape:document-units="mm"
     inkscape:current-layer="layer1"
     showgrid="false"
     inkscape:window-width="2398"
     inkscape:window-height="1341"
     inkscape:window-x="533"
     inkscape:window-y="255"
     inkscape:window-maximized="0"
     inkscape:showpageshadow="2"
     inkscape:pagecheckerboard="0"
     inkscape:deskcolor="#d1d1d1" />
  <metadata
     id="metadata5">
    <rdf:RDF>
      <cc:Work
         rdf:about="">
        <dc:format>image/svg+xml</dc:format>
        <dc:type
           rdf:resource="http://purl.org/dc/dcmitype/StillImage" />
        <dc:title />
      </cc:Work>
    </rdf:RDF>
  </metadata>
  <g
     inkscape:label="Layer 1"
     inkscape:groupmode="layer"
     id="layer1"
     transform="translate(0,-197)">
    <g
       id="g2636">
      <path
         d="m 74.268122,228.01828 q 1.548938,0 2.761153,0.40173 1.212229,0.33477 1.212229,0.40172 v 11.18147 h -4.310117 q -4.175419,0 -6.061092,2.14256 -1.818324,2.14256 -1.818324,6.36072 V 264.2409 H 52.650209 v -35.35221 h 10.977318 l 0.875493,5.35639 q 1.212216,-3.07992 3.838697,-4.61989 2.626467,-1.60691 5.926405,-1.60691 z"
         style="font-size:50.4668px;font-family:'Archivo Black';-inkscape-font-specification:'Archivo Black, ';font-variation-settings:'wght' 700;text-align:center;text-anchor:middle;white-space:pre;fill:#566d8c;fill-opacity:1;stroke:none;stroke-width:2.66031;stroke-opacity:0.960784"
         id="path956" />
      <path
         d="m 102.01453,228.08522 q 9.76509,0 14.88335,4.55295 5.18561,4.55293 5.18561,13.92662 v 2.27646 H 95.414666 q 0,3.81644 1.683638,5.75813 1.750987,1.94169 5.454986,1.94169 3.36727,0 4.91622,-1.40605 1.61629,-1.40605 1.61629,-3.74948 h 12.99769 q 0,6.42767 -4.91623,10.04324 -4.91622,3.61557 -14.34459,3.61557 -9.899785,0 -15.354769,-4.55293 -5.454983,-4.61989 -5.454983,-13.92663 0,-9.10587 5.320297,-13.79272 5.320284,-4.68685 14.681315,-4.68685 z m 0.53876,8.50329 q -6.33048,0 -7.071274,5.95898 h 13.065024 q 0,-2.74515 -1.61629,-4.35207 -1.54895,-1.60691 -4.37746,-1.60691 z"
         style="font-size:50.4668px;font-family:'Archivo Black';-inkscape-font-specification:'Archivo Black, ';font-variation-settings:'wght' 700;text-align:center;text-anchor:middle;white-space:pre;fill:#566d8c;fill-opacity:1;stroke:none;stroke-width:2.66031;stroke-opacity:0.960784"
         id="path958" />
      <path
         d="m 129.02006,264.2409 v -48.54233 h 13.40175 v 48.54233 z"
         style="font-size:50.4668px;font-family:'Archivo Black';-inkscape-font-specification:'Archivo Black, ';font-variation-settings:'wght' 700;text-align:center;text-anchor:middle;white-space:pre;fill:#566d8c;fill-opacity:1;stroke:none;stroke-width:2.66031;stroke-opacity:0.960784"
         id="path960" />
      <path
         d="m 168.55188,228.08522 q 8.1488,0 13.26706,2.74516 5.11825,2.67819 5.11825,8.77109 v 13.79272 q 0,1.13824 0.53877,1.87473 0.53876,0.73651 1.61629,0.73651 h 2.42444 v 7.69982 q -0.20203,0.13392 -1.07753,0.46869 -0.80814,0.26782 -2.35709,0.53563 -1.54895,0.33478 -3.56931,0.33478 -3.90604,0 -6.46517,-1.13824 -2.49179,-1.20518 -3.43462,-3.28078 -2.55913,2.00864 -5.72437,3.21384 -3.16524,1.20518 -7.40801,1.20518 -12.52625,0 -12.52625,-9.90933 0,-5.15553 2.76116,-7.83372 2.82851,-2.74515 8.08146,-3.74949 5.25294,-1.00432 13.73848,-1.00432 v -1.74082 q 0,-2.0756 -1.4816,-3.14688 -1.41425,-1.07128 -3.704,-1.07128 -2.08771,0 -3.63666,0.7365 -1.4816,0.73651 -1.4816,2.34342 v 0.26782 h -13.19971 q -0.0674,-0.33478 -0.0674,-0.93737 0,-5.02162 4.78152,-7.96764 4.84888,-2.94602 13.80584,-2.94602 z m 4.98356,20.75603 q -5.72437,0 -8.48554,1.27215 -2.69381,1.20518 -2.69381,3.28079 0,3.34774 4.57949,3.34774 2.62648,0 4.5795,-1.40605 2.02036,-1.40605 2.02036,-3.48165 z"
         style="font-size:50.4668px;font-family:'Archivo Black';-inkscape-font-specification:'Archivo Black, ';font-variation-settings:'wght' 700;text-align:center;text-anchor:middle;white-space:pre;fill:#566d8c;fill-opacity:1;stroke:none;stroke-width:2.66031;stroke-opacity:0.960784"
         id="path962" />
      <path
         d="m 220.34055,263.16962 q -2.76117,7.43199 -6.8019,11.24842 -3.97338,3.88338 -11.17935,3.88338 -4.37746,0 -7.74473,-1.20519 v -7.96763 h 5.38763 q 5.05091,0 5.99376,-4.8877 L 191.8534,228.88869 h 14.41194 l 6.80189,23.50117 h 0.47142 l 6.26313,-23.50117 h 13.19972 z"
         style="font-size:50.4668px;font-family:'Archivo Black';-inkscape-font-specification:'Archivo Black, ';font-variation-settings:'wght' 700;text-align:center;text-anchor:middle;white-space:pre;fill:#566d8c;fill-opacity:1;stroke:none;stroke-width:2.66031;stroke-opacity:0.960784"
         id="path964" />
      <rect
         style="font-size:50.4668px;font-family:Gotham;-inkscape-font-specification:'Gotham, @wght=700';font-variation-settings:'wght' 700;text-align:center;text-anchor:middle;white-space:pre;fill:#566d8c;fill-opacity:1;stroke:none;stroke-width:0.478848;stroke-opacity:0.960784"
         id="rect1115"
         width="181.64305"
         height="9.1873903"
         x="21.481783"
         y="269.12936" />
      <circle
         style="fill:#566d8c;fill-opacity:1;stroke:none;stroke-width:0.450213;stroke-opacity:0.960784"
         id="path2621"
         cx="21.381561"
         cy="273.72305"
         r="10.690781" />
    </g>
  </g>
</svg>
