<?xml version="1.0" encoding="UTF-8" standalone="no"?>
<!-- Created with Inkscape (http://www.inkscape.org/) -->

<svg
   xmlns:dc="http://purl.org/dc/elements/1.1/"
   xmlns:cc="http://creativecommons.org/ns#"
   xmlns:rdf="http://www.w3.org/1999/02/22-rdf-syntax-ns#"
   xmlns:svg="http://www.w3.org/2000/svg"
   xmlns="http://www.w3.org/2000/svg"
   xmlns:sodipodi="http://sodipodi.sourceforge.net/DTD/sodipodi-0.dtd"
   xmlns:inkscape="http://www.inkscape.org/namespaces/inkscape"
   width="240mm"
   height="100mm"
   viewBox="0 0 240 100"
   version="1.1"
   id="svg8"
   inkscape:version="0.92.3 (2405546, 2018-03-11)"
   sodipodi:docname="relayLogo.svg"
   inkscape:export-filename="C:\Users\johnpierson\relayLogo.png"
   inkscape:export-xdpi="96"
   inkscape:export-ydpi="96">
  <defs
     id="defs2" />
  <sodipodi:namedview
     id="base"
     pagecolor="#ffffff"
     bordercolor="#666666"
     borderopacity="1.0"
     inkscape:pageopacity="0.0"
     inkscape:pageshadow="2"
     inkscape:zoom="0.7"
     inkscape:cx="473.08596"
     inkscape:cy="78.642642"
     inkscape:document-units="mm"
     inkscape:current-layer="layer1"
     showgrid="false"
     inkscape:window-width="1921"
     inkscape:window-height="1018"
     inkscape:window-x="951"
     inkscape:window-y="0"
     inkscape:window-maximized="0" />
  <metadata
     id="metadata5">
    <rdf:RDF>
      <cc:Work
         rdf:about="">
        <dc:format>image/svg+xml</dc:format>
        <dc:type
           rdf:resource="http://purl.org/dc/dcmitype/StillImage" />
        <dc:title></dc:title>
      </cc:Work>
    </rdf:RDF>
  </metadata>
  <g
     inkscape:label="Layer 1"
     inkscape:groupmode="layer"
     id="layer1"
     transform="translate(0,-197)">
    <path
       inkscape:connector-curvature="0"
       id="path823"
       style="font-style:normal;font-variant:normal;font-weight:normal;font-stretch:normal;font-size:medium;line-height:1.25;font-family:Gotham;-inkscape-font-specification:'Gotham, weight=330';font-variant-ligatures:normal;font-variant-caps:normal;font-variant-numeric:normal;font-feature-settings:normal;text-align:start;letter-spacing:0px;word-spacing:0px;writing-mode:lr-tb;text-anchor:start;fill:#ff0000;fill-opacity:1;stroke:none;stroke-width:1.73448443"
       d="m 16.793302,277.90852 h 8.949939 l 30.735064,-64.24531 h -8.94994 z" />
    <path
       inkscape:connector-curvature="0"
       id="path825"
       style="font-style:normal;font-variant:normal;font-weight:normal;font-stretch:normal;font-size:medium;line-height:1.25;font-family:Gotham;-inkscape-font-specification:'Gotham,  weight=330';font-variant-ligatures:normal;font-variant-caps:normal;font-variant-numeric:normal;font-feature-settings:normal;text-align:start;letter-spacing:0px;word-spacing:0px;writing-mode:lr-tb;text-anchor:start;fill:#000000;fill-opacity:1;stroke:none;stroke-width:1.73448443"
       d="m 56.652837,269.02796 h 10.545664 v -13.73712 c 0,-8.88056 4.301521,-13.1127 11.308838,-13.1127 h 0.555035 v -11.03132 c -6.244144,-0.27752 -9.713113,3.05269 -11.863873,8.18676 v -7.49297 H 56.652837 Z" />
    <path
       inkscape:connector-curvature="0"
       id="path827"
       style="font-style:normal;font-variant:normal;font-weight:normal;font-stretch:normal;font-size:medium;line-height:1.25;font-family:Gotham;-inkscape-font-specification:'Gotham,  weight=330';font-variant-ligatures:normal;font-variant-caps:normal;font-variant-numeric:normal;font-feature-settings:normal;text-align:start;letter-spacing:0px;word-spacing:0px;writing-mode:lr-tb;text-anchor:start;fill:#000000;fill-opacity:1;stroke:none;stroke-width:1.73448443"
       d="m 102.18956,269.86051 c 6.72979,0 11.72511,-2.63642 15.19408,-6.93794 l -6.03601,-5.34221 c -2.91393,2.70579 -5.48097,3.81586 -9.01932,3.81586 -4.717793,0 -8.048004,-2.49765 -9.088694,-7.28483 h 25.878504 c 0.0694,-0.97131 0.13876,-1.94262 0.13876,-2.77518 0,-10.54566 -5.68911,-20.18939 -18.10802,-20.18939 -10.823178,0 -18.38553,8.7418 -18.38553,19.35684 v 0.13876 c 0,11.37822 8.256146,19.21809 19.42623,19.21809 z m -9.088703,-22.34016 c 0.832553,-4.78718 3.677107,-7.90925 8.048003,-7.90925 4.44028,0 7.21546,3.19145 7.83987,7.90925 z" />
    <path
       inkscape:connector-curvature="0"
       id="path829"
       style="font-style:normal;font-variant:normal;font-weight:normal;font-stretch:normal;font-size:medium;line-height:1.25;font-family:Gotham;-inkscape-font-specification:'Gotham,  weight=330';font-variant-ligatures:normal;font-variant-caps:normal;font-variant-numeric:normal;font-feature-settings:normal;text-align:start;letter-spacing:0px;word-spacing:0px;writing-mode:lr-tb;text-anchor:start;fill:#000000;fill-opacity:1;stroke:none;stroke-width:1.73448443"
       d="m 127.60192,269.02796 h 10.54567 v -50.64695 h -10.54567 z" />
    <path
       inkscape:connector-curvature="0"
       id="path831"
       style="font-style:normal;font-variant:normal;font-weight:normal;font-stretch:normal;font-size:medium;line-height:1.25;font-family:Gotham;-inkscape-font-specification:'Gotham,  weight=330';font-variant-ligatures:normal;font-variant-caps:normal;font-variant-numeric:normal;font-feature-settings:normal;text-align:start;letter-spacing:0px;word-spacing:0px;writing-mode:lr-tb;text-anchor:start;fill:#000000;fill-opacity:1;stroke:none;stroke-width:1.73448443"
       d="m 158.66546,269.72175 c 5.13407,0 8.67242,-1.87324 11.23946,-4.7178 v 4.02401 h 10.19877 v -21.57699 c 0,-4.99532 -1.24883,-9.0887 -4.02401,-11.86387 -2.63641,-2.63642 -6.79918,-4.16277 -12.55766,-4.16277 -6.31353,0 -10.33753,1.17945 -14.43091,2.98332 l 2.63641,8.048 c 3.39959,-1.24882 6.24415,-2.012 10.26815,-2.012 5.27283,0 7.97863,2.42828 7.97863,6.79918 v 0.62442 c -2.63642,-0.90194 -5.34221,-1.52635 -9.0887,-1.52635 -8.81118,0 -14.98595,3.74649 -14.98595,11.86387 v 0.13876 c 0,7.35422 5.75849,11.37822 12.76581,11.37822 z m 3.19145,-7.28484 c -3.39959,0 -5.75849,-1.6651 -5.75849,-4.50965 v -0.13876 c 0,-3.33021 2.77518,-5.13408 7.28484,-5.13408 2.56703,0 4.92593,0.55504 6.7298,1.38759 v 1.87324 c 0,3.81587 -3.33021,6.52166 -8.25615,6.52166 z" />
    <path
       inkscape:connector-curvature="0"
       id="path833"
       style="font-style:normal;font-variant:normal;font-weight:normal;font-stretch:normal;font-size:medium;line-height:1.25;font-family:Gotham;-inkscape-font-specification:'Gotham,  weight=330';font-variant-ligatures:normal;font-variant-caps:normal;font-variant-numeric:normal;font-feature-settings:normal;text-align:start;letter-spacing:0px;word-spacing:0px;writing-mode:lr-tb;text-anchor:start;fill:#000000;fill-opacity:1;stroke:none;stroke-width:1.73448443"
       d="m 196.70378,280.33679 c 6.31352,0 9.36621,-2.84455 12.21077,-10.4069 l 14.29215,-38.08928 h -10.96194 l -8.11739,25.32347 -8.46428,-25.32347 h -11.17008 l 14.56967,37.3261 c -0.90193,1.87325 -1.87325,2.42828 -3.67711,2.42828 -1.38759,0 -3.12207,-0.62441 -4.50966,-1.45696 l -3.53835,7.63173 c 2.7058,1.59572 5.55035,2.56703 9.36622,2.56703 z" />
  </g>
</svg>
